<?xml version="1.0" standalone="no"?>
<!DOCTYPE svg PUBLIC "-//W3C//DTD SVG 20010904//EN"
 "http://www.w3.org/TR/2001/REC-SVG-20010904/DTD/svg10.dtd">
<svg version="1.0" xmlns="http://www.w3.org/2000/svg"
 width="300.000000pt" height="300.000000pt" viewBox="0 0 300.000000 300.000000"
 preserveAspectRatio="xMidYMid meet">
<metadata>
Created by potrace 1.10, written by Peter Selinger 2001-2011
</metadata>
<g transform="translate(0.000000,300.000000) scale(0.100000,-0.100000)"
fill="#000000" stroke="none">
<path d="M554 2429 c-3 -6 -6 -38 -6 -72 1 -117 81 -282 196 -405 59 -62 63
-70 63 -113 0 -62 28 -106 103 -158 33 -23 65 -51 70 -61 6 -11 11 -61 13
-112 2 -81 6 -100 31 -145 l29 -53 -7 -172 c-3 -95 -9 -196 -12 -225 -6 -52
-6 -52 40 -95 58 -53 151 -111 225 -139 70 -27 220 -37 300 -19 78 17 185 68
259 125 93 70 92 66 76 230 -15 145 -10 320 8 331 26 16 48 91 48 167 0 94 16
129 69 156 87 45 131 101 131 168 0 33 7 46 46 83 105 103 183 231 210 347 17
73 13 151 -9 165 -20 13 -139 9 -200 -7 -76 -20 -187 -76 -269 -137 -78 -57
-222 -206 -264 -272 -17 -28 -34 -44 -42 -41 -32 12 -212 16 -272 6 -57 -10
-66 -9 -75 5 -35 57 -118 159 -175 215 -154 152 -335 239 -500 239 -46 0 -82
-5 -86 -11z m239 -64 c37 -13 100 -42 139 -66 119 -70 305 -263 345 -357 9
-23 19 -32 29 -28 68 26 248 31 365 10 35 -6 38 -4 53 28 24 49 161 204 234
263 79 64 170 119 241 146 59 22 163 39 193 31 44 -11 -1 -188 -77 -302 -24
-36 -73 -94 -109 -130 -63 -61 -66 -67 -66 -111 0 -59 -27 -95 -106 -139 -30
-18 -60 -44 -68 -58 -7 -15 -15 -68 -18 -118 -5 -112 -30 -162 -119 -230 -33
-25 -61 -45 -63 -43 -2 2 -13 23 -26 47 -23 41 -42 52 -55 32 -4 -6 6 -35 21
-65 65 -134 -18 -225 -145 -158 -63 33 -73 49 -38 62 26 10 81 74 91 107 8 27
-6 66 -35 93 -19 18 -35 21 -104 21 -56 0 -87 -5 -102 -15 -28 -19 -45 -78
-33 -111 13 -32 60 -84 88 -95 31 -12 28 -22 -17 -53 -78 -54 -158 -41 -181
30 -14 42 -1 102 31 142 19 25 16 52 -6 52 -16 0 -55 -47 -55 -66 0 -21 -8
-18 -65 25 -74 56 -95 103 -95 215 0 109 -11 130 -96 191 -73 52 -100 97 -90
149 5 27 -2 39 -58 103 -113 126 -170 228 -196 345 -19 84 -13 91 63 83 34 -4
93 -17 130 -30z m757 -1025 c21 -21 27 -60 10 -60 -5 0 -10 6 -10 14 0 23 -20
30 -38 13 -14 -14 -13 -18 2 -42 10 -15 16 -28 14 -30 -11 -9 -49 -25 -60 -25
-8 0 -22 6 -32 13 -18 13 -18 15 -1 41 16 25 17 29 3 43 -18 17 -38 10 -38
-13 0 -8 -4 -14 -10 -14 -19 0 -10 49 12 64 34 24 123 21 148 -4z m-425 -80
c10 -11 25 -22 35 -25 13 -4 19 -20 22 -62 4 -50 9 -60 43 -91 36 -33 40 -34
101 -30 51 3 72 10 107 34 l43 31 44 -31 c33 -22 58 -31 101 -34 93 -7 139 31
155 124 5 32 15 45 52 71 l47 33 6 -153 c4 -83 10 -173 14 -198 7 -45 6 -46
-39 -83 -72 -59 -155 -105 -229 -128 -94 -28 -235 -23 -322 13 -59 24 -141 75
-199 123 l-28 23 12 147 c7 80 10 171 8 201 -5 60 -1 66 27 35z"/>
<path d="M815 2290 c-9 -15 2 -28 38 -46 61 -31 129 -89 168 -143 45 -62 47
-71 19 -71 -31 0 -34 -26 -7 -62 27 -37 52 -101 40 -106 -28 -9 -88 -50 -97
-65 -20 -31 12 -39 53 -12 20 13 48 27 64 30 15 4 27 12 28 19 3 35 -5 76 -23
114 -20 41 -20 44 -2 56 16 12 17 18 6 55 -16 52 -103 146 -185 200 -64 41
-91 49 -102 31z"/>
<path d="M2059 2252 c-87 -57 -151 -126 -175 -189 -17 -43 -17 -46 -1 -58 17
-12 16 -15 -3 -47 -11 -19 -23 -55 -26 -81 l-7 -47 49 -21 c27 -11 57 -28 67
-37 16 -14 19 -14 35 2 16 16 15 19 -13 42 -16 13 -44 29 -62 34 -29 10 -31
13 -22 42 5 17 20 49 34 69 30 47 32 65 4 72 -21 6 -21 6 -2 37 27 47 112 124
176 160 38 21 57 38 57 51 0 31 -32 23 -111 -29z"/>
<path d="M1277 1713 c-12 -11 -7 -33 8 -39 20 -8 45 13 38 32 -5 14 -34 19
-46 7z"/>
<path d="M1627 1706 c-7 -19 18 -40 39 -32 8 3 14 14 12 23 -4 22 -43 29 -51
9z"/>
<path d="M1194 1658 c-22 -10 -44 -47 -44 -72 0 -7 9 -25 21 -40 26 -33 79
-36 109 -6 30 30 27 83 -6 109 -29 23 -48 25 -80 9z m56 -53 c10 -12 10 -18 0
-30 -25 -30 -61 -7 -46 30 3 8 12 15 19 15 8 0 20 -7 27 -15z"/>
<path d="M1686 1649 c-30 -24 -35 -72 -10 -107 19 -28 83 -31 106 -4 37 41 28
100 -19 121 -34 16 -47 14 -77 -10z m72 -55 c4 -26 -26 -40 -45 -21 -8 7 -11
21 -7 31 9 24 48 17 52 -10z"/>
<path d="M1360 1020 c-20 -13 -3 -40 35 -55 71 -30 210 -7 210 35 0 18 -31 17
-92 -1 -38 -12 -48 -11 -92 8 -27 11 -55 17 -61 13z"/>
</g>
</svg>
